%TF.GenerationSoftware,KiCad,Pcbnew,9.0.7*%
%TF.CreationDate,2026-03-26T03:54:09+02:00*%
%TF.ProjectId,hackpad again,6861636b-7061-4642-9061-6761696e2e6b,rev?*%
%TF.SameCoordinates,Original*%
%TF.FileFunction,Legend,Bot*%
%TF.FilePolarity,Positive*%
%FSLAX46Y46*%
G04 Gerber Fmt 4.6, Leading zero omitted, Abs format (unit mm)*
G04 Created by KiCad (PCBNEW 9.0.7) date 2026-03-26 03:54:09*
%MOMM*%
%LPD*%
G01*
G04 APERTURE LIST*
%ADD10C,0.150100*%
%ADD11C,0.250000*%
G04 APERTURE END LIST*
D10*
%TO.C,PB1*%
X135098000Y-103520100D02*
X135098000Y-102520100D01*
X135098000Y-102520100D02*
X136098000Y-102520100D01*
X136098000Y-116520100D02*
X135098000Y-116520100D01*
X135098000Y-116520100D02*
X135098000Y-115520100D01*
X149098000Y-115520100D02*
X149098000Y-116520100D01*
X149098000Y-116520100D02*
X148098000Y-116520100D01*
X148098000Y-102520100D02*
X149098000Y-102520100D01*
X149098000Y-102520100D02*
X149098000Y-103520100D01*
%TO.C,PB2*%
X154147900Y-103520100D02*
X154147900Y-102520100D01*
X154147900Y-102520100D02*
X155147900Y-102520100D01*
X155147900Y-116520100D02*
X154147900Y-116520100D01*
X154147900Y-116520100D02*
X154147900Y-115520100D01*
X168147900Y-115520100D02*
X168147900Y-116520100D01*
X168147900Y-116520100D02*
X167147900Y-116520100D01*
X167147900Y-102520100D02*
X168147900Y-102520100D01*
X168147900Y-102520100D02*
X168147900Y-103520100D01*
%TO.C,PB4*%
X154147900Y-122570000D02*
X154147900Y-121570000D01*
X154147900Y-121570000D02*
X155147900Y-121570000D01*
X155147900Y-135570000D02*
X154147900Y-135570000D01*
X154147900Y-135570000D02*
X154147900Y-134570000D01*
X168147900Y-134570000D02*
X168147900Y-135570000D01*
X168147900Y-135570000D02*
X167147900Y-135570000D01*
X167147900Y-121570000D02*
X168147900Y-121570000D01*
X168147900Y-121570000D02*
X168147900Y-122570000D01*
D11*
%TO.C,LED4*%
X166990000Y-87930000D02*
X175118000Y-87930000D01*
X175118000Y-87930000D02*
X175118000Y-91994000D01*
X175118000Y-91994000D02*
X166990000Y-91994000D01*
X166990000Y-91994000D02*
X166990000Y-87930000D01*
%TO.C,LED3*%
X128890000Y-87803000D02*
X137018000Y-87803000D01*
X137018000Y-87803000D02*
X137018000Y-91867000D01*
X137018000Y-91867000D02*
X128890000Y-91867000D01*
X128890000Y-91867000D02*
X128890000Y-87803000D01*
D10*
%TO.C,PB3*%
X135098000Y-122570000D02*
X135098000Y-121570000D01*
X135098000Y-121570000D02*
X136098000Y-121570000D01*
X136098000Y-135570000D02*
X135098000Y-135570000D01*
X135098000Y-135570000D02*
X135098000Y-134570000D01*
X149098000Y-134570000D02*
X149098000Y-135570000D01*
X149098000Y-135570000D02*
X148098000Y-135570000D01*
X148098000Y-121570000D02*
X149098000Y-121570000D01*
X149098000Y-121570000D02*
X149098000Y-122570000D01*
%TD*%
M02*
