%TF.GenerationSoftware,KiCad,Pcbnew,9.0.7*%
%TF.CreationDate,2026-03-26T03:54:09+02:00*%
%TF.ProjectId,hackpad again,6861636b-7061-4642-9061-6761696e2e6b,rev?*%
%TF.SameCoordinates,Original*%
%TF.FileFunction,Soldermask,Top*%
%TF.FilePolarity,Negative*%
%FSLAX46Y46*%
G04 Gerber Fmt 4.6, Leading zero omitted, Abs format (unit mm)*
G04 Created by KiCad (PCBNEW 9.0.7) date 2026-03-26 03:54:09*
%MOMM*%
%LPD*%
G01*
G04 APERTURE LIST*
G04 Aperture macros list*
%AMFreePoly0*
4,1,27,1.083121,0.808941,1.190921,0.764341,1.218425,0.736860,1.218441,0.736821,1.263041,0.629021,1.266900,0.609600,1.266900,-0.609600,1.263041,-0.629021,1.218441,-0.736821,1.190960,-0.764325,1.190921,-0.764341,1.083121,-0.808941,1.063700,-0.812800,-1.063500,-0.812800,-1.082936,-0.808935,-1.190636,-0.764335,-1.218126,-0.736858,-1.262826,-0.629058,-1.266700,-0.609600,-1.266700,0.609600,
-1.262826,0.629058,-1.218126,0.736858,-1.190636,0.764335,-1.082936,0.808935,-1.063500,0.812800,1.063700,0.812800,1.083121,0.808941,1.083121,0.808941,$1*%
%AMFreePoly1*
4,1,29,1.083121,0.808941,1.190921,0.764341,1.218425,0.736860,1.218441,0.736821,1.263041,0.629021,1.266900,0.609600,1.266900,-0.609600,1.263041,-0.629021,1.218441,-0.736821,1.190960,-0.764325,1.190921,-0.764341,1.083121,-0.808941,1.063700,-0.812800,-1.063500,-0.812800,-1.082921,-0.808941,-1.190721,-0.764341,-1.218225,-0.736860,-1.218241,-0.736821,-1.262841,-0.629021,-1.266700,-0.609600,
-1.266700,0.609600,-1.262841,0.629021,-1.218241,0.736821,-1.190760,0.764325,-1.190721,0.764341,-1.082921,0.808941,-1.063500,0.812800,1.063700,0.812800,1.083121,0.808941,1.083121,0.808941,$1*%
G04 Aperture macros list end*
%ADD10C,3.987800*%
%ADD11C,1.701800*%
%ADD12O,2.387600X2.387600*%
%ADD13FreePoly0,0.000000*%
%ADD14FreePoly1,180.000000*%
%ADD15O,1.625600X1.625600*%
G04 APERTURE END LIST*
D10*
%TO.C,PB1*%
X142098000Y-109520100D03*
D11*
X147178000Y-109520100D03*
X137018000Y-109520100D03*
D12*
X144638000Y-104440100D03*
X138288000Y-106980100D03*
%TD*%
D10*
%TO.C,PB2*%
X161147900Y-109520100D03*
D11*
X166227900Y-109520100D03*
X156067900Y-109520100D03*
D12*
X163687900Y-104440100D03*
X157337900Y-106980100D03*
%TD*%
D10*
%TO.C,PB4*%
X161147900Y-128570000D03*
D11*
X166227900Y-128570000D03*
X156067900Y-128570000D03*
D12*
X163687900Y-123490000D03*
X157337900Y-126030000D03*
%TD*%
D13*
%TO.C,U1*%
X160204900Y-82215000D03*
D14*
X143295100Y-82215000D03*
X143295100Y-84755000D03*
X143295100Y-87295000D03*
X143295100Y-89835000D03*
X143295100Y-92375000D03*
X143295100Y-94915000D03*
X143295100Y-97455000D03*
D13*
X160204900Y-97455000D03*
X160204900Y-94915000D03*
X160204900Y-92375000D03*
X160204900Y-89835000D03*
X160204900Y-87295000D03*
X160204900Y-84755000D03*
D15*
X144130000Y-82215000D03*
X144130000Y-84755000D03*
X144130000Y-87295000D03*
X144130000Y-89835000D03*
X144130000Y-92375000D03*
X144130000Y-94915000D03*
X144130000Y-97455000D03*
X159370000Y-97455000D03*
X159370000Y-94915000D03*
X159370000Y-92375000D03*
X159370000Y-89835000D03*
X159370000Y-87295000D03*
X159370000Y-84755000D03*
X159370000Y-82215000D03*
%TD*%
D10*
%TO.C,PB3*%
X142098000Y-128570000D03*
D11*
X147178000Y-128570000D03*
X137018000Y-128570000D03*
D12*
X144638000Y-123490000D03*
X138288000Y-126030000D03*
%TD*%
M02*
