%TF.GenerationSoftware,KiCad,Pcbnew,9.0.7*%
%TF.CreationDate,2026-03-26T03:54:09+02:00*%
%TF.ProjectId,hackpad again,6861636b-7061-4642-9061-6761696e2e6b,rev?*%
%TF.SameCoordinates,Original*%
%TF.FileFunction,Soldermask,Bot*%
%TF.FilePolarity,Negative*%
%FSLAX46Y46*%
G04 Gerber Fmt 4.6, Leading zero omitted, Abs format (unit mm)*
G04 Created by KiCad (PCBNEW 9.0.7) date 2026-03-26 03:54:09*
%MOMM*%
%LPD*%
G01*
G04 APERTURE LIST*
G04 Aperture macros list*
%AMRoundRect*
0 Rectangle with rounded corners*
0 $1 Rounding radius*
0 $2 $3 $4 $5 $6 $7 $8 $9 X,Y pos of 4 corners*
0 Add a 4 corners polygon primitive as box body*
4,1,4,$2,$3,$4,$5,$6,$7,$8,$9,$2,$3,0*
0 Add four circle primitives for the rounded corners*
1,1,$1+$1,$2,$3*
1,1,$1+$1,$4,$5*
1,1,$1+$1,$6,$7*
1,1,$1+$1,$8,$9*
0 Add four rect primitives between the rounded corners*
20,1,$1+$1,$2,$3,$4,$5,0*
20,1,$1+$1,$4,$5,$6,$7,0*
20,1,$1+$1,$6,$7,$8,$9,0*
20,1,$1+$1,$8,$9,$2,$3,0*%
G04 Aperture macros list end*
%ADD10C,3.987800*%
%ADD11C,1.701800*%
%ADD12O,2.387600X2.387600*%
%ADD13O,1.625600X1.625600*%
%ADD14RoundRect,0.010000X-0.800000X-0.410000X0.800000X-0.410000X0.800000X0.410000X-0.800000X0.410000X0*%
G04 APERTURE END LIST*
D10*
%TO.C,PB1*%
X142098000Y-109520100D03*
D11*
X147178000Y-109520100D03*
X137018000Y-109520100D03*
D12*
X144638000Y-104440100D03*
X138288000Y-106980100D03*
%TD*%
D10*
%TO.C,PB2*%
X161147900Y-109520100D03*
D11*
X166227900Y-109520100D03*
X156067900Y-109520100D03*
D12*
X163687900Y-104440100D03*
X157337900Y-106980100D03*
%TD*%
D10*
%TO.C,PB4*%
X161147900Y-128570000D03*
D11*
X166227900Y-128570000D03*
X156067900Y-128570000D03*
D12*
X163687900Y-123490000D03*
X157337900Y-126030000D03*
%TD*%
D13*
%TO.C,U1*%
X144130000Y-82215000D03*
X144130000Y-84755000D03*
X144130000Y-87295000D03*
X144130000Y-89835000D03*
X144130000Y-92375000D03*
X144130000Y-94915000D03*
X144130000Y-97455000D03*
X159370000Y-97455000D03*
X159370000Y-94915000D03*
X159370000Y-92375000D03*
X159370000Y-89835000D03*
X159370000Y-87295000D03*
X159370000Y-84755000D03*
X159370000Y-82215000D03*
%TD*%
D14*
%TO.C,LED4*%
X168104000Y-89211900D03*
X174004000Y-89211900D03*
X168104000Y-90712100D03*
X174004000Y-90712100D03*
%TD*%
%TO.C,LED3*%
X130004000Y-89084900D03*
X135904000Y-89084900D03*
X130004000Y-90585100D03*
X135904000Y-90585100D03*
%TD*%
D10*
%TO.C,PB3*%
X142098000Y-128570000D03*
D11*
X147178000Y-128570000D03*
X137018000Y-128570000D03*
D12*
X144638000Y-123490000D03*
X138288000Y-126030000D03*
%TD*%
M02*
