%TF.GenerationSoftware,KiCad,Pcbnew,9.0.7*%
%TF.CreationDate,2026-03-26T03:54:08+02:00*%
%TF.ProjectId,hackpad again,6861636b-7061-4642-9061-6761696e2e6b,rev?*%
%TF.SameCoordinates,Original*%
%TF.FileFunction,Copper,L1,Top*%
%TF.FilePolarity,Positive*%
%FSLAX46Y46*%
G04 Gerber Fmt 4.6, Leading zero omitted, Abs format (unit mm)*
G04 Created by KiCad (PCBNEW 9.0.7) date 2026-03-26 03:54:08*
%MOMM*%
%LPD*%
G01*
G04 APERTURE LIST*
G04 Aperture macros list*
%AMFreePoly0*
4,1,13,1.171500,0.717400,1.216100,0.609600,1.216100,-0.609600,1.171500,-0.717400,1.063700,-0.762000,-1.063500,-0.762000,-1.171200,-0.717400,-1.215900,-0.609600,-1.215900,0.609600,-1.171200,0.717400,-1.063500,0.762000,1.063700,0.762000,1.171500,0.717400,1.171500,0.717400,$1*%
%AMFreePoly1*
4,1,13,1.171500,0.717400,1.216100,0.609600,1.216100,-0.609600,1.171500,-0.717400,1.063700,-0.762000,-1.063500,-0.762000,-1.171300,-0.717400,-1.215900,-0.609600,-1.215900,0.609600,-1.171300,0.717400,-1.063500,0.762000,1.063700,0.762000,1.171500,0.717400,1.171500,0.717400,$1*%
G04 Aperture macros list end*
%TA.AperFunction,ComponentPad*%
%ADD10O,2.286000X2.286000*%
%TD*%
%TA.AperFunction,SMDPad,CuDef*%
%ADD11FreePoly0,0.000000*%
%TD*%
%TA.AperFunction,SMDPad,CuDef*%
%ADD12FreePoly1,180.000000*%
%TD*%
%TA.AperFunction,ComponentPad*%
%ADD13O,1.524000X1.524000*%
%TD*%
%TA.AperFunction,Conductor*%
%ADD14C,0.254000*%
%TD*%
G04 APERTURE END LIST*
D10*
%TO.P,PB1,1*%
%TO.N,U1_8*%
X144638000Y-104440100D03*
%TO.P,PB1,2*%
%TO.N,GND*%
X138288000Y-106980100D03*
%TD*%
%TO.P,PB2,1*%
%TO.N,U1_9*%
X163687900Y-104440100D03*
%TO.P,PB2,2*%
%TO.N,GND*%
X157337900Y-106980100D03*
%TD*%
%TO.P,PB4,1*%
%TO.N,U1_11*%
X163687900Y-123490000D03*
%TO.P,PB4,2*%
%TO.N,GND*%
X157337900Y-126030000D03*
%TD*%
D11*
%TO.P,U1,14*%
%TO.N,+5V*%
X160204900Y-82215000D03*
D12*
%TO.P,U1,1*%
%TO.N,U1_1*%
X143295100Y-82215000D03*
%TO.P,U1,2*%
%TO.N,U1_2*%
X143295100Y-84755000D03*
%TO.P,U1,3*%
%TO.N,U1_3*%
X143295100Y-87295000D03*
%TO.P,U1,4*%
%TO.N,U1_4*%
X143295100Y-89835000D03*
%TO.P,U1,5*%
%TO.N,U1_5*%
X143295100Y-92375000D03*
%TO.P,U1,6*%
%TO.N,U1_6*%
X143295100Y-94915000D03*
%TO.P,U1,7*%
%TO.N,U1_7*%
X143295100Y-97455000D03*
D11*
%TO.P,U1,8*%
%TO.N,U1_8*%
X160204900Y-97455000D03*
%TO.P,U1,9*%
%TO.N,U1_9*%
X160204900Y-94915000D03*
%TO.P,U1,10*%
%TO.N,U1_10*%
X160204900Y-92375000D03*
%TO.P,U1,11*%
%TO.N,U1_11*%
X160204900Y-89835000D03*
%TO.P,U1,12*%
%TO.N,U1_12*%
X160204900Y-87295000D03*
%TO.P,U1,13*%
%TO.N,GND*%
X160204900Y-84755000D03*
D13*
%TO.P,U1,1*%
%TO.N,U1_1*%
X144130000Y-82215000D03*
%TO.P,U1,2*%
%TO.N,U1_2*%
X144130000Y-84755000D03*
%TO.P,U1,3*%
%TO.N,U1_3*%
X144130000Y-87295000D03*
%TO.P,U1,4*%
%TO.N,U1_4*%
X144130000Y-89835000D03*
%TO.P,U1,5*%
%TO.N,U1_5*%
X144130000Y-92375000D03*
%TO.P,U1,6*%
%TO.N,U1_6*%
X144130000Y-94915000D03*
%TO.P,U1,7*%
%TO.N,U1_7*%
X144130000Y-97455000D03*
%TO.P,U1,8*%
%TO.N,U1_8*%
X159370000Y-97455000D03*
%TO.P,U1,9*%
%TO.N,U1_9*%
X159370000Y-94915000D03*
%TO.P,U1,10*%
%TO.N,U1_10*%
X159370000Y-92375000D03*
%TO.P,U1,11*%
%TO.N,U1_11*%
X159370000Y-89835000D03*
%TO.P,U1,12*%
%TO.N,U1_12*%
X159370000Y-87295000D03*
%TO.P,U1,13*%
%TO.N,GND*%
X159370000Y-84755000D03*
%TO.P,U1,14*%
%TO.N,+5V*%
X159370000Y-82215000D03*
%TD*%
D10*
%TO.P,PB3,1*%
%TO.N,U1_10*%
X144638000Y-123490000D03*
%TO.P,PB3,2*%
%TO.N,GND*%
X138288000Y-126030000D03*
%TD*%
D14*
%TO.N,U1_9*%
X163434000Y-102281000D02*
X163434000Y-95849000D01*
X163434000Y-95849000D02*
X162500000Y-94915000D01*
X163687900Y-102534900D02*
X163434000Y-102281000D01*
X163687900Y-104440100D02*
X163687900Y-102534900D01*
X162500000Y-94915000D02*
X160204900Y-94915000D01*
%TO.N,GND*%
X152000000Y-106980100D02*
X138288000Y-106980100D01*
X138288000Y-126030000D02*
X138288000Y-106980100D01*
X155500000Y-126030000D02*
X138288000Y-126030000D01*
X155500000Y-126030000D02*
X157337900Y-126030000D01*
X152000000Y-92959900D02*
X152000000Y-106980100D01*
X160204900Y-84755000D02*
X152000000Y-92959900D01*
X156956900Y-106980100D02*
X152000000Y-106980100D01*
X157973000Y-126030000D02*
X155500000Y-126030000D01*
%TD*%
M02*
