%TF.GenerationSoftware,KiCad,Pcbnew,9.0.7*%
%TF.CreationDate,2026-03-26T03:54:08+02:00*%
%TF.ProjectId,hackpad again,6861636b-7061-4642-9061-6761696e2e6b,rev?*%
%TF.SameCoordinates,Original*%
%TF.FileFunction,Copper,L2,Bot*%
%TF.FilePolarity,Positive*%
%FSLAX46Y46*%
G04 Gerber Fmt 4.6, Leading zero omitted, Abs format (unit mm)*
G04 Created by KiCad (PCBNEW 9.0.7) date 2026-03-26 03:54:08*
%MOMM*%
%LPD*%
G01*
G04 APERTURE LIST*
%TA.AperFunction,ComponentPad*%
%ADD10O,2.286000X2.286000*%
%TD*%
%TA.AperFunction,ComponentPad*%
%ADD11O,1.524000X1.524000*%
%TD*%
%TA.AperFunction,SMDPad,CuDef*%
%ADD12R,1.600000X0.820000*%
%TD*%
%TA.AperFunction,Conductor*%
%ADD13C,0.254000*%
%TD*%
G04 APERTURE END LIST*
D10*
%TO.P,PB1,1*%
%TO.N,U1_8*%
X144638000Y-104440100D03*
%TO.P,PB1,2*%
%TO.N,GND*%
X138288000Y-106980100D03*
%TD*%
%TO.P,PB2,1*%
%TO.N,U1_9*%
X163687900Y-104440100D03*
%TO.P,PB2,2*%
%TO.N,GND*%
X157337900Y-106980100D03*
%TD*%
%TO.P,PB4,1*%
%TO.N,U1_11*%
X163687900Y-123490000D03*
%TO.P,PB4,2*%
%TO.N,GND*%
X157337900Y-126030000D03*
%TD*%
D11*
%TO.P,U1,1*%
%TO.N,U1_1*%
X144130000Y-82215000D03*
%TO.P,U1,2*%
%TO.N,U1_2*%
X144130000Y-84755000D03*
%TO.P,U1,3*%
%TO.N,U1_3*%
X144130000Y-87295000D03*
%TO.P,U1,4*%
%TO.N,U1_4*%
X144130000Y-89835000D03*
%TO.P,U1,5*%
%TO.N,U1_5*%
X144130000Y-92375000D03*
%TO.P,U1,6*%
%TO.N,U1_6*%
X144130000Y-94915000D03*
%TO.P,U1,7*%
%TO.N,U1_7*%
X144130000Y-97455000D03*
%TO.P,U1,8*%
%TO.N,U1_8*%
X159370000Y-97455000D03*
%TO.P,U1,9*%
%TO.N,U1_9*%
X159370000Y-94915000D03*
%TO.P,U1,10*%
%TO.N,U1_10*%
X159370000Y-92375000D03*
%TO.P,U1,11*%
%TO.N,U1_11*%
X159370000Y-89835000D03*
%TO.P,U1,12*%
%TO.N,U1_12*%
X159370000Y-87295000D03*
%TO.P,U1,13*%
%TO.N,GND*%
X159370000Y-84755000D03*
%TO.P,U1,14*%
%TO.N,+5V*%
X159370000Y-82215000D03*
%TD*%
D12*
%TO.P,LED4,1*%
%TO.N,+5V*%
X168104000Y-89211900D03*
%TO.P,LED4,4*%
%TO.N,LED3_2*%
X174004000Y-89211900D03*
%TO.P,LED4,2*%
%TO.N,LED4_2*%
X168104000Y-90712100D03*
%TO.P,LED4,3*%
%TO.N,GND*%
X174004000Y-90712100D03*
%TD*%
%TO.P,LED3,1*%
%TO.N,+5V*%
X130004000Y-89084900D03*
%TO.P,LED3,4*%
%TO.N,U1_5*%
X135904000Y-89084900D03*
%TO.P,LED3,2*%
%TO.N,LED3_2*%
X130004000Y-90585100D03*
%TO.P,LED3,3*%
%TO.N,GND*%
X135904000Y-90585100D03*
%TD*%
D10*
%TO.P,PB3,1*%
%TO.N,U1_10*%
X144638000Y-123490000D03*
%TO.P,PB3,2*%
%TO.N,GND*%
X138288000Y-126030000D03*
%TD*%
D13*
%TO.N,U1_10*%
X170165000Y-103170000D02*
X159370000Y-92375000D01*
X169065000Y-114600000D02*
X170165000Y-113500000D01*
X170165000Y-113500000D02*
X170165000Y-103170000D01*
X153528000Y-114600000D02*
X169065000Y-114600000D01*
X144638000Y-123490000D02*
X153528000Y-114600000D01*
%TO.N,LED3_2*%
X174004000Y-84149000D02*
X174004000Y-89211900D01*
X128500000Y-80310000D02*
X170165000Y-80310000D01*
X127747000Y-81063000D02*
X128500000Y-80310000D01*
X170165000Y-80310000D02*
X174004000Y-84149000D01*
X127747000Y-89200000D02*
X127747000Y-81063000D01*
X130004000Y-90585100D02*
X129132100Y-90585100D01*
X129132100Y-90585100D02*
X127747000Y-89200000D01*
%TO.N,U1_8*%
X144638000Y-103297000D02*
X144638000Y-104440100D01*
X150480000Y-97455000D02*
X144638000Y-103297000D01*
X159370000Y-97455000D02*
X150480000Y-97455000D01*
%TO.N,GND*%
X138288000Y-105837000D02*
X138288000Y-106980100D01*
X135904000Y-103453000D02*
X138288000Y-105837000D01*
X135904000Y-90585100D02*
X135904000Y-103453000D01*
%TO.N,U1_11*%
X164906500Y-122906500D02*
X164271400Y-122906500D01*
X164271400Y-122906500D02*
X163687900Y-123490000D01*
X164906500Y-122906500D02*
X164323000Y-123490000D01*
X159370000Y-89835000D02*
X162926000Y-89835000D01*
X162926000Y-89835000D02*
X171943000Y-98852000D01*
X171943000Y-98852000D02*
X171943000Y-115870000D01*
X171943000Y-115870000D02*
X164906500Y-122906500D01*
%TO.N,U1_5*%
X135904000Y-89084900D02*
X136775900Y-89084900D01*
X136775900Y-89084900D02*
X140066000Y-92375000D01*
X140066000Y-92375000D02*
X144130000Y-92375000D01*
%TO.N,+5V*%
X130004000Y-89084900D02*
X130004000Y-82371000D01*
X130004000Y-82371000D02*
X131557000Y-80818000D01*
X131557000Y-80818000D02*
X157973000Y-80818000D01*
X157973000Y-80818000D02*
X159370000Y-82215000D01*
X168104000Y-89211900D02*
X168104000Y-83964000D01*
X168104000Y-83964000D02*
X166228000Y-82088000D01*
X166228000Y-82088000D02*
X159497000Y-82088000D01*
X159497000Y-82088000D02*
X159370000Y-82215000D01*
%TO.N,GND*%
X174004000Y-90712100D02*
X174004000Y-93108000D01*
X174004000Y-93108000D02*
X172324000Y-94788000D01*
X172324000Y-94788000D02*
X169403000Y-94788000D01*
X169403000Y-94788000D02*
X159370000Y-84755000D01*
%TD*%
M02*
